<svg xmlns="http://www.w3.org/2000/svg" width="208.5" height="61.111" viewBox="0 0 208.5 61.111">
  <g id="Grupo_1" data-name="Grupo 1" transform="translate(-67.249 -115.569)">
    <path id="Trazado_1" data-name="Trazado 1" d="M95.051,139.725v32.739h7.5V160.641h15.005v-6.025H103.008v-8.753h16.483v-6.138Z" transform="translate(-14.368 -12.414)" fill="#4ab421"/>
    <rect id="Rectángulo_9" data-name="Rectángulo 9" width="7.389" height="25.009" transform="translate(109.556 135.041)" fill="#4ab421"/>
    <rect id="Rectángulo_10" data-name="Rectángulo 10" width="7.275" height="34.671" transform="translate(123.651 125.379)" fill="#4ab421"/>
    <path id="Trazado_2" data-name="Trazado 2" d="M217.531,156.388h7.389v13.755s-.455,4.774,3.978,5.456c0,0,6.707,1.364,6.821-6.707v-12.5h7.162V181.4H236.4v-3.186s-6.48,7.278-15.346,1.253c0,0-3.978-2.955-3.524-11.254Z" transform="translate(-80.011 -21.347)" fill="#5b6a84"/>
    <path id="Trazado_3" data-name="Trazado 3" d="M302.591,155.65a12.005,12.005,0,0,0-8.1,3.163v-2.821H287.9v33.762h6.593V178.292a12.005,12.005,0,0,0,8.1,3.163,12.915,12.915,0,0,0,0-25.806m-1.362,20.157c-3.508,0-6.35-3.234-6.35-7.223s2.842-7.224,6.35-7.224,6.35,3.234,6.35,7.224-2.843,7.223-6.35,7.223" transform="translate(-117.755 -20.951)" fill="#5b6a84"/>
    <path id="Trazado_4" data-name="Trazado 4" d="M164.557,135.372a4.523,4.523,0,1,1-4.49-3.979,4.258,4.258,0,0,1,4.49,3.979" transform="translate(-46.817 -7.947)" fill="#4ab421"/>
    <path id="Trazado_444" data-name="Trazado 444" d="M0,0H57.955V43.424H0Z" transform="translate(204.36 124.413)" fill="#4ab421"/>
    <path id="Trazado_5" data-name="Trazado 5" d="M391.624,178.38l-5.581-7.847a17.409,17.409,0,0,1-1.953.1h-6.557v7.742h-2.581V153.966h9.138c6.207,0,9.974,3.139,9.974,8.371a7.568,7.568,0,0,1-5.58,7.673l5.964,8.371Zm-.14-16.043c0-3.906-2.581-6.138-7.464-6.138h-6.487V168.44h6.487c4.883,0,7.464-2.267,7.464-6.1" transform="translate(-164.424 -20.049)" fill="#fdfdfd"/>
    <path id="Trazado_6" data-name="Trazado 6" d="M449.713,153.966V178.38h-2.546V167.115H431.891V178.38H429.31V153.966h2.581v10.882h15.277V153.966Z" transform="translate(-193.566 -20.048)" fill="#fdfdfd"/>
    <rect id="Rectángulo_12" data-name="Rectángulo 12" width="206.5" height="59.111" transform="translate(68.249 116.569)" fill="none" stroke="#4ab421" stroke-miterlimit="10" stroke-width="2"/>
  </g>
</svg>
